<svg width="187" height="51" viewBox="0 0 187 51" fill="none" xmlns="http://www.w3.org/2000/svg">
<g clip-path="url(#clip0_3217_3233)">
<path d="M172.507 51.0079C174.649 51.0079 176.385 49.2782 176.385 47.1444C176.385 45.0106 174.649 43.2808 172.507 43.2808C170.365 43.2808 168.629 45.0106 168.629 47.1444C168.629 49.2782 170.365 51.0079 172.507 51.0079Z" fill="#99B087"/>
<path d="M161.894 51.0079C164.035 51.0079 165.772 49.2781 165.772 47.1444C165.772 45.0106 164.035 43.2808 161.894 43.2808C159.752 43.2808 158.016 45.0106 158.016 47.1444C158.016 49.2781 159.752 51.0079 161.894 51.0079Z" fill="#99B087"/>
<path d="M183.119 51.0079C185.261 51.0079 186.997 49.2782 186.997 47.1444C186.997 45.0106 185.261 43.2808 183.119 43.2808C180.977 43.2808 179.241 45.0106 179.241 47.1444C179.241 49.2782 180.977 51.0079 183.119 51.0079Z" fill="#99B087"/>
<path d="M65.2407 49.4471C64.6981 48.8324 64.4268 48.0904 64.4268 47.2212C64.4268 46.3521 64.6981 45.6048 65.2407 44.9847C65.7753 44.3699 66.427 44.0625 67.1903 44.0625C67.8207 44.0625 68.3527 44.2321 68.7862 44.5687C69.2198 44.8999 69.4884 45.3451 69.5895 45.9042H69.1826C69.1081 45.4855 68.882 45.1384 68.5016 44.8628C68.1293 44.5872 67.693 44.4468 67.1903 44.4468C66.5413 44.4468 65.9854 44.7171 65.5253 45.2576C65.0651 45.8035 64.8337 46.4581 64.8337 47.2212C64.8337 47.9844 65.0651 48.6389 65.5253 49.1848C65.9854 49.7254 66.5413 49.9957 67.1903 49.9957C67.7462 49.9957 68.2037 49.834 68.5628 49.5107C68.9272 49.1875 69.1347 48.7555 69.1826 48.2149H69.5895C69.5363 48.8695 69.2889 49.3915 68.8474 49.7837C68.4139 50.1759 67.8633 50.3693 67.1903 50.3693C66.4243 50.3693 65.7753 50.0619 65.2407 49.4471Z" fill="#262626" stroke="#262626" stroke-width="0.25" stroke-miterlimit="10"/>
<path d="M78.3984 50.2183V44.2162H78.8054V50.2183H78.3984Z" fill="#262626" stroke="#262626" stroke-width="0.25" stroke-miterlimit="10"/>
<path d="M88.0117 50.2183V44.2162H90.887C91.2993 44.2162 91.653 44.3726 91.943 44.6826C92.2329 44.9874 92.3792 45.3584 92.3792 45.7956C92.3792 46.1798 92.2914 46.5137 92.1158 46.7973C91.9323 47.0808 91.7062 47.2451 91.4349 47.2928C91.685 47.359 91.8898 47.5737 92.044 47.9314C92.201 48.2891 92.2781 48.7211 92.2781 49.2272C92.2781 49.5108 92.2861 49.7227 92.2994 49.8658C92.3127 50.0354 92.3393 50.152 92.3818 50.2209H91.9749C91.9084 50.1388 91.8632 49.9904 91.8419 49.7757L91.8126 48.9145C91.8126 48.5091 91.7142 48.162 91.5174 47.8731C91.3285 47.5896 91.0945 47.4491 90.8178 47.4491H88.4213V50.2209H88.0144L88.0117 50.2183ZM90.8152 47.0702C91.1344 47.0702 91.4083 46.9483 91.6371 46.7045C91.8605 46.4687 91.9722 46.1772 91.9722 45.8353C91.9722 45.4935 91.8605 45.2073 91.6371 44.9662C91.4057 44.7303 91.1317 44.6111 90.8152 44.6111H88.4187V47.0702H90.8152Z" fill="#262626" stroke="#262626" stroke-width="0.25" stroke-miterlimit="10"/>
<path d="M100.021 49.3014C99.4783 48.6866 99.207 47.9447 99.207 47.0755C99.207 46.2063 99.4783 45.4591 100.021 44.839C100.556 44.2242 101.207 43.9168 101.971 43.9168C102.601 43.9168 103.133 44.0864 103.567 44.4229C104 44.7542 104.269 45.1994 104.37 45.7585H103.963C103.888 45.3398 103.662 44.9927 103.282 44.7171C102.91 44.4415 102.473 44.301 101.971 44.301C101.322 44.301 100.766 44.5713 100.306 45.1119C99.8454 45.6578 99.614 46.3123 99.614 47.0755C99.614 47.8387 99.8454 48.4932 100.306 49.0391C100.766 49.5796 101.322 49.8499 101.971 49.8499C102.527 49.8499 102.984 49.6883 103.343 49.365C103.707 49.0417 103.915 48.6098 103.963 48.0692H104.37C104.317 48.7237 104.069 49.2458 103.628 49.6379C103.194 50.0301 102.644 50.2236 101.971 50.2236C101.205 50.2236 100.556 49.9162 100.021 49.3014Z" fill="#262626" stroke="#262626" stroke-width="0.25" stroke-miterlimit="10"/>
<path d="M111.82 49.6857C111.378 49.2802 111.16 48.7926 111.16 48.2176V44.1394H111.567V48.2176C111.567 48.6893 111.751 49.0921 112.115 49.4207C112.474 49.7519 112.91 49.9162 113.426 49.9162C113.913 49.9162 114.333 49.7519 114.687 49.4207C115.033 49.0894 115.206 48.6893 115.206 48.2176V44.1394H115.613V48.2176C115.613 48.79 115.4 49.2802 114.972 49.6857C114.546 50.0911 114.03 50.2925 113.429 50.2925C112.828 50.2925 112.272 50.0911 111.825 49.6857H111.82Z" fill="#262626" stroke="#262626" stroke-width="0.25" stroke-miterlimit="10"/>
<path d="M123.153 44.0705H123.56V49.6883H126.8V50.0725H123.153V44.0705Z" fill="#262626" stroke="#262626" stroke-width="0.25" stroke-miterlimit="10"/>
<path d="M133.944 50.2183L136.33 44.2162H136.838L139.195 50.2183H138.727L137.955 48.2944H135.173L134.402 50.2183H133.944ZM137.804 47.9102L136.564 44.6826L135.296 47.9102H137.804Z" fill="#262626" stroke="#262626" stroke-width="0.25" stroke-miterlimit="10"/>
<path d="M145.98 50.2183V44.2162H148.856C149.268 44.2162 149.622 44.3726 149.912 44.6826C150.202 44.9874 150.348 45.3584 150.348 45.7956C150.348 46.1798 150.26 46.5137 150.085 46.7973C149.901 47.0808 149.675 47.2451 149.404 47.2928C149.654 47.359 149.859 47.5737 150.013 47.9314C150.17 48.2891 150.247 48.7211 150.247 49.2272C150.247 49.5108 150.255 49.7227 150.268 49.8658C150.281 50.0354 150.308 50.152 150.351 50.2209H149.944C149.877 50.1388 149.832 49.9904 149.811 49.7757L149.781 48.9145C149.781 48.5091 149.683 48.162 149.486 47.8731C149.297 47.5896 149.063 47.4491 148.787 47.4491H146.39V50.2209H145.983L145.98 50.2183ZM148.784 47.0702C149.103 47.0702 149.377 46.9483 149.606 46.7045C149.829 46.4687 149.941 46.1772 149.941 45.8353C149.941 45.4935 149.829 45.2073 149.606 44.9662C149.374 44.7303 149.1 44.6111 148.784 44.6111H146.387V47.0702H148.784Z" fill="#262626" stroke="#262626" stroke-width="0.25" stroke-miterlimit="10"/>
<path d="M116.368 17.5821C116.368 17.5821 110.756 15.7987 108.699 14.3863C106.393 12.8017 104.973 10.8672 105.159 8.49558C105.319 6.46045 106.154 5.36604 107.378 4.62407C110.011 3.03148 113.639 2.99968 116.493 5.84568C117.381 6.73074 118.046 7.73506 118.477 8.76322C118.546 8.93016 118.724 9.02821 118.905 8.99906L123.829 8.22529C124.031 8.19349 124.164 7.97355 124.103 7.76421C122.355 1.90262 117.945 0.0052948 111.25 0.0052948C105.399 0.0052948 100.22 4.16034 100.22 11.164C100.22 16.6838 104 18.2499 110.503 20.7646C110.503 20.7646 117.323 23.6133 118.291 24.5805C119.461 25.8683 120.006 27.4318 119.629 28.9237C119.086 31.0701 116.793 32.4507 114.006 32.562C113.28 32.562 111.968 32.4374 111.242 32.2678C108.327 31.5921 106.159 29.663 105.518 27.5802C105.401 27.1986 105 26.9839 104.617 27.0952L99.8396 28.4997C99.6534 28.5553 99.547 28.7673 99.6081 28.9581C101.337 34.2526 106.268 36.0307 113.094 36.0307C120.791 36.0307 126.542 30.397 125.113 25.3596C123.855 20.913 120.943 19.3708 116.365 17.5794L116.368 17.5821Z" fill="#99B087"/>
<path d="M17.4882 22.7865L13.0729 10.2154L8.20272 22.7865L7.15474 25.5318L3.32723 35.3762C3.27403 35.5113 3.15168 35.5988 3.01337 35.5988H0.340232C0.0981865 35.5988 -0.0667235 35.3364 0.0263709 35.1006L13.7139 0.800264C13.7671 0.667769 13.8895 0.580322 14.0278 0.580322H15.9827C16.1237 0.580322 16.2487 0.670419 16.2993 0.808214L28.9628 35.1085C29.0505 35.3444 28.8856 35.5988 28.6462 35.5988H22.1882C22.0472 35.5988 21.9195 35.506 21.869 35.3629L18.4458 25.5318L17.4909 22.7865H17.4882Z" fill="#99B087"/>
<path d="M81.9176 22.7865L77.5023 10.2154L72.6321 22.7865L71.5842 25.5318L67.7566 35.3762C67.7035 35.5113 67.5811 35.5988 67.4428 35.5988H64.767C64.5249 35.5988 64.36 35.3364 64.4531 35.1006L78.1433 0.800264C78.1965 0.667769 78.3189 0.580322 78.4572 0.580322H80.4122C80.5531 0.580322 80.6782 0.670419 80.7287 0.808214L93.3922 35.1085C93.48 35.3444 93.315 35.5988 93.0757 35.5988H86.6176C86.4766 35.5988 86.3489 35.506 86.2984 35.3629L82.8752 25.5318L81.9203 22.7865H81.9176Z" fill="#99B087"/>
<path d="M175.505 22.7865L171.089 10.2154L166.219 22.7865L165.171 25.5318L161.344 35.3762C161.29 35.5113 161.168 35.5988 161.03 35.5988H158.354C158.112 35.5988 157.947 35.3364 158.04 35.1006L171.73 0.800264C171.783 0.667769 171.906 0.580322 172.044 0.580322H173.999C174.14 0.580322 174.265 0.670419 174.316 0.808214L186.979 35.1085C187.067 35.3444 186.902 35.5988 186.663 35.5988H180.204C180.064 35.5988 179.936 35.506 179.885 35.3629L176.462 25.5318L175.507 22.7865H175.505Z" fill="#99B087"/>
<path d="M37.0836 0.580322H42.7783C42.9645 0.580322 43.1161 0.744616 43.1161 0.943359V32.2016C43.1161 32.403 43.2677 32.5646 43.4539 32.5646H60.2083C60.3945 32.5646 60.5461 32.7289 60.5461 32.9277V35.2304C60.5461 35.4318 60.3945 35.5935 60.2083 35.5935H37.081C36.8948 35.5935 36.7432 35.4292 36.7432 35.2304V0.946009C36.7432 0.744616 36.8948 0.582972 37.081 0.582972L37.0836 0.580322Z" fill="#99B087"/>
<path d="M136.764 16.2783L150.629 1.19245C150.839 0.964558 150.688 0.580322 150.387 0.580322H147.698C147.605 0.580322 147.517 0.620071 147.454 0.688968L133.199 16.3234C133.138 16.3923 133.104 16.4797 133.104 16.5725C133.109 17.0892 133.082 18.8805 133.09 19.3814C133.09 19.4635 133.12 19.5404 133.17 19.6013C134.327 21.027 136.101 23.2741 138.594 26.5679C141.841 30.8925 144.993 33.6961 149.454 35.5246C149.587 35.5802 151.776 35.5246 151.805 35.5246H153.792C154.071 35.5246 154.231 35.1854 154.063 34.9495L136.761 16.2783H136.764Z" fill="#99B087"/>
</g>
<defs>
<clipPath id="clip0_3217_3233">
<rect width="187" height="51" fill="white" transform="translate(0 0.0079422)"/>
</clipPath>
</defs>
</svg>
